<svg width="21" height="20" viewBox="0 0 21 20" fill="none" xmlns="http://www.w3.org/2000/svg">
<g clip-path="url(#clip0_270_57)">
<path d="M20.0071 10.2305C20.0071 9.55068 19.952 8.86724 19.8344 8.19849H10.4021V12.0493H15.8035C15.5794 13.2913 14.8592 14.3899 13.8046 15.0881V17.5867H17.0271C18.9195 15.845 20.0071 13.2729 20.0071 10.2305Z" fill="#4285F4"/>
<path d="M10.4021 20.0008C13.0991 20.0008 15.3736 19.1152 17.0308 17.5867L13.8083 15.088C12.9117 15.698 11.7543 16.0434 10.4057 16.0434C7.79689 16.0434 5.58487 14.2833 4.79119 11.917H1.46582V14.4928C3.16341 17.8696 6.62107 20.0008 10.4021 20.0008Z" fill="#34A853"/>
<path d="M4.78755 11.917C4.36866 10.675 4.36866 9.3302 4.78755 8.08824V5.51245H1.46585C0.0475157 8.3381 0.0475157 11.6671 1.46585 14.4928L4.78755 11.917Z" fill="#FBBC04"/>
<path d="M10.4021 3.95805C11.8278 3.936 13.2057 4.47247 14.2382 5.45722L17.0932 2.60218C15.2854 0.904587 12.886 -0.0287217 10.4021 0.000673888C6.62107 0.000673888 3.16341 2.13185 1.46582 5.51234L4.78752 8.08813C5.57752 5.71811 7.79321 3.95805 10.4021 3.95805Z" fill="#EA4335"/>
</g>
<defs>
<clipPath id="clip0_270_57">
<rect width="20" height="20" fill="white" transform="translate(0.202148)"/>
</clipPath>
</defs>
</svg>
